<svg xmlns="http://www.w3.org/2000/svg" width="263" height="59" fill="none"><path fill="#020202" d="m28.46.9-9.35 57.9h-9.2L.56.9H8.2l6.29 44.19L20.78.9h7.68zm6.05 57.9V.9h7.74v57.9h-7.74zm30.45-42.34v-5.08c0-2.313-1.13-3.466-3.39-3.46h-1.21c-2.2 0-3.3 1.154-3.3 3.46v9.6a2.85 2.85 0 0 0 .64 2.18 16.71 16.71 0 0 0 2.1 1.45l7.34 3.95c1.184.646 2.33 1.36 3.43 2.14a5.56 5.56 0 0 1 1.57 1.85c.468 1.335.658 2.75.56 4.16v12.33c0 6.507-3.117 9.76-9.35 9.76h-4.76c-6.18 0-9.27-3.546-9.27-10.64v-2.91h7.74v3.15c0 2.26 1.154 3.39 3.46 3.39h1.38c2.04 0 3.06-1.13 3.06-3.39v-9.84a2.848 2.848 0 0 0-.64-2.18 17.609 17.609 0 0 0-2.1-1.45l-7.34-4.11a23.642 23.642 0 0 1-3.51-2.18 5 5 0 0 1-1.57-2.3 11.622 11.622 0 0 1-.48-3.67V10.82c0-6.606 3.09-9.913 9.27-9.92h4.84c6.18 0 9.27 3.307 9.27 9.92v5.64h-7.74zM104.93.9v46.93c0 7.334-3.12 11-9.36 11h-6.53c-6.18 0-9.274-3.683-9.28-11.05V.9h7.75V48c0 2.52 1.13 3.79 3.38 3.79h3.15c2.1 0 3.14-1.27 3.14-3.79V.9h7.75zm16.2 57.9h-7.74v-48c0-6.606 3.093-9.912 9.28-9.92h5.8c6.193 0 9.287 3.308 9.28 9.92v48H130V37.59h-8.87V58.8zM130 30.58V11.3c0-2.26-1.12-3.38-3.38-3.38h-2.1c-2.26 0-3.39 1.12-3.39 3.38v19.28H130zm75.57 28.22h-7.75v-48c0-6.606 3.093-9.912 9.28-9.92h5.8c6.187 0 9.28 3.308 9.28 9.92v48h-7.74V37.59h-8.87V58.8zm8.87-28.22V11.3c0-2.26-1.13-3.38-3.39-3.38h-2.1c-2.26 0-3.38 1.12-3.38 3.38v19.28h8.87zm31.93 4.35 7.18-34h8.54v57.9h-7.74l.81-37.9-5.81 27.42h-6l-5.81-27.42.81 37.9h-7.75V.93h8.6l7.17 34zM164.54.91l-1.23 6.93h18.43v39.72c0 2.79-1.1 4.23-3.36 4.23l-5.63.07-1.22 6.94h9.08c5.86 0 8.78-3.253 8.76-9.76V.9l-24.83.01zm1.72 57.88 1.22-6.93H154.2V12.15c0-2.8 1.1-4.23 3.36-4.23h.52l1.24-7h-4c-5.86 0-8.78 3.253-8.76 9.76v48.14l19.7-.03z"/></svg>