<svg width="263" height="59" viewBox="0 0 263 59" fill="none" xmlns="http://www.w3.org/2000/svg">
<path d="M28.4601 0.900391L19.11 58.8004H9.9101L0.560059 0.900391H8.20007L14.4901 45.0904L20.7801 0.900391H28.4601Z" fill="white"/>
<path d="M34.5098 58.8004V0.900391H42.2498V58.8004H34.5098Z" fill="white"/>
<path d="M64.9601 16.4604V11.3804C64.9601 9.06707 63.8301 7.91374 61.5701 7.92041H60.3601C58.1601 7.92041 57.0601 9.07373 57.0601 11.3804V20.9804C57.0116 21.3682 57.0434 21.7619 57.1535 22.1369C57.2636 22.512 57.4497 22.8603 57.7001 23.1604C58.3624 23.6963 59.0644 24.181 59.8001 24.6104L67.1401 28.5604C68.3244 29.2059 69.4697 29.9205 70.5701 30.7004C71.2233 31.194 71.7594 31.8257 72.1401 32.5504C72.6079 33.8845 72.7984 35.3001 72.7001 36.7104V49.0404C72.7001 55.5471 69.5835 58.8004 63.3502 58.8004H58.5902C52.4102 58.8004 49.3201 55.2537 49.3201 48.1604V45.2504H57.0601V48.4004C57.0601 50.6604 58.2135 51.7904 60.5201 51.7904H61.9002C63.9402 51.7904 64.9601 50.6604 64.9601 48.4004V38.5604C65.0087 38.1726 64.9769 37.7789 64.8668 37.4039C64.7567 37.0288 64.5706 36.6805 64.3201 36.3804C63.6561 35.8469 62.9543 35.3623 62.2202 34.9304L54.8801 30.8204C53.6487 30.1976 52.4743 29.4681 51.3701 28.6404C50.6395 28.0379 50.0951 27.2403 49.8001 26.3404C49.4451 25.1506 49.283 23.9115 49.3201 22.6704V10.8204C49.3201 4.21374 52.4102 0.907057 58.5902 0.900391H63.4301C69.6101 0.900391 72.7001 4.20707 72.7001 10.8204V16.4604H64.9601Z" fill="white"/>
<path d="M104.93 0.900391V47.8304C104.93 55.1637 101.81 58.8304 95.5698 58.8304H89.0398C82.8598 58.8304 79.7664 55.1471 79.7598 47.7804V0.900391H87.5098V48.0004C87.5098 50.5204 88.6398 51.7904 90.8898 51.7904H94.0398C96.1398 51.7904 97.1797 50.5204 97.1797 48.0004V0.900391H104.93Z" fill="white"/>
<path d="M121.13 58.8008H113.39V10.8008C113.39 4.19418 116.483 0.887526 122.67 0.880859H128.47C134.663 0.880859 137.757 4.18751 137.75 10.8008V58.8008H130V37.5909H121.13V58.8008ZM130 30.5808V11.3008C130 9.04084 128.88 7.92087 126.62 7.92087H124.52C122.26 7.92087 121.13 9.04084 121.13 11.3008V30.5808H130Z" fill="white"/>
<path d="M205.57 58.8008H197.82V10.8008C197.82 4.19418 200.913 0.887526 207.1 0.880859H212.9C219.087 0.880859 222.18 4.18751 222.18 10.8008V58.8008H214.44V37.5909H205.57V58.8008ZM214.44 30.5808V11.3008C214.44 9.04084 213.31 7.92087 211.05 7.92087H208.95C206.69 7.92087 205.57 9.04084 205.57 11.3008V30.5808H214.44Z" fill="white"/>
<path d="M246.37 34.9297L253.55 0.929688H262.09V58.8297H254.35L255.16 20.9297L249.35 48.3497H243.35L237.54 20.9297L238.35 58.8297H230.6V0.929688H239.2L246.37 34.9297Z" fill="white"/>
<path d="M164.54 0.9104L163.31 7.84039H181.74V47.5604C181.74 50.3504 180.64 51.7904 178.38 51.7904L172.75 51.8604L171.53 58.8004H180.61C186.47 58.8004 189.39 55.5471 189.37 49.0404V0.900391L164.54 0.9104Z" fill="white"/>
<path d="M166.26 58.7899L167.48 51.8599H154.2V12.1499C154.2 9.34992 155.3 7.91994 157.56 7.91994H158.08L159.32 0.919922H155.32C149.46 0.919922 146.54 4.17325 146.56 10.6799V58.8199L166.26 58.7899Z" fill="white"/>
</svg>
